<?xml version="1.0" encoding="utf-8"?>
<!-- Generator: Adobe Illustrator 13.0.0, SVG Export Plug-In . SVG Version: 6.00 Build 14948)  -->
<!DOCTYPE svg PUBLIC "-//W3C//DTD SVG 1.1//EN" "http://www.w3.org/Graphics/SVG/1.1/DTD/svg11.dtd">
<svg version="1.1" id="レイヤー_1" xmlns="http://www.w3.org/2000/svg" xmlns:xlink="http://www.w3.org/1999/xlink" x="0px"
	 y="0px" width="26px" height="26px" viewBox="25.313 22 26 26" enable-background="new 25.313 22 26 26" xml:space="preserve">
<path fill="#AAAAAA" d="M41.574,22c5.379,0,9.738,4.359,9.738,9.738s-4.359,9.738-9.738,9.738c-1.842,0-3.564-0.511-5.063-1.369
	l-7.03,7.031c-0.913,0.912-2.393,0.912-3.305,0c-0.913-0.913-0.913-2.393,0-3.306l7.062-7.061c-0.888-1.468-1.4-3.191-1.4-5.033
	C31.837,26.359,36.196,22,41.574,22z M41.574,25.116c-3.657,0-6.621,2.965-6.621,6.622c0,3.657,2.964,6.622,6.621,6.622
	c3.657,0,6.622-2.964,6.622-6.622C48.196,28.081,45.231,25.116,41.574,25.116z"/>
</svg>
